<mxfile host="app.diagrams.net" agent="Mozilla/5.0 (Macintosh; Intel Mac OS X 10_15_7) AppleWebKit/537.36 (KHTML, like Gecko) Chrome/129.0.0.0 Safari/537.36" version="24.7.16">
  <diagram id="C5RBs43oDa-KdzZeNtuy" name="Page-1">
    <mxGraphModel dx="1562" dy="877" grid="1" gridSize="10" guides="1" tooltips="1" connect="1" arrows="1" fold="1" page="1" pageScale="1" pageWidth="827" pageHeight="1169" math="0" shadow="0">
      <root>
        <mxCell id="WIyWlLk6GJQsqaUBKTNV-0" />
        <mxCell id="WIyWlLk6GJQsqaUBKTNV-1" parent="WIyWlLk6GJQsqaUBKTNV-0" />
        <mxCell id="K_k5wiLfLo3zVsC4gHq1-3" style="edgeStyle=orthogonalEdgeStyle;rounded=0;orthogonalLoop=1;jettySize=auto;html=1;exitX=1;exitY=0.5;exitDx=0;exitDy=0;entryX=0.5;entryY=0;entryDx=0;entryDy=0;" edge="1" parent="WIyWlLk6GJQsqaUBKTNV-1" source="WIyWlLk6GJQsqaUBKTNV-3" target="WIyWlLk6GJQsqaUBKTNV-6">
          <mxGeometry relative="1" as="geometry" />
        </mxCell>
        <mxCell id="WIyWlLk6GJQsqaUBKTNV-3" value="Original Question" style="rounded=1;whiteSpace=wrap;html=1;fontSize=12;glass=0;strokeWidth=1;shadow=0;" parent="WIyWlLk6GJQsqaUBKTNV-1" vertex="1">
          <mxGeometry x="40" y="60" width="201.25" height="70" as="geometry" />
        </mxCell>
        <mxCell id="K_k5wiLfLo3zVsC4gHq1-5" style="edgeStyle=orthogonalEdgeStyle;rounded=0;orthogonalLoop=1;jettySize=auto;html=1;" edge="1" parent="WIyWlLk6GJQsqaUBKTNV-1" source="WIyWlLk6GJQsqaUBKTNV-6">
          <mxGeometry relative="1" as="geometry">
            <mxPoint x="395" y="530" as="targetPoint" />
          </mxGeometry>
        </mxCell>
        <mxCell id="WIyWlLk6GJQsqaUBKTNV-6" value="Prompt LLM&lt;div&gt;for alternative ways to ask the Question, given the answer &amp;amp; category&lt;/div&gt;" style="whiteSpace=wrap;html=1;shadow=0;fontFamily=Helvetica;fontSize=12;align=center;strokeWidth=1;spacing=6;spacingTop=-4;shape=ellipse;perimeter=ellipsePerimeter;" parent="WIyWlLk6GJQsqaUBKTNV-1" vertex="1">
          <mxGeometry x="290" y="270" width="210" height="170" as="geometry" />
        </mxCell>
        <mxCell id="K_k5wiLfLo3zVsC4gHq1-4" style="edgeStyle=orthogonalEdgeStyle;rounded=0;orthogonalLoop=1;jettySize=auto;html=1;exitX=0;exitY=0.5;exitDx=0;exitDy=0;entryX=0.5;entryY=0;entryDx=0;entryDy=0;" edge="1" parent="WIyWlLk6GJQsqaUBKTNV-1" source="K_k5wiLfLo3zVsC4gHq1-0" target="WIyWlLk6GJQsqaUBKTNV-6">
          <mxGeometry relative="1" as="geometry" />
        </mxCell>
        <mxCell id="K_k5wiLfLo3zVsC4gHq1-0" value="Original Answer" style="rounded=1;whiteSpace=wrap;html=1;fontSize=12;glass=0;strokeWidth=1;shadow=0;" vertex="1" parent="WIyWlLk6GJQsqaUBKTNV-1">
          <mxGeometry x="560" y="60" width="201.25" height="70" as="geometry" />
        </mxCell>
        <mxCell id="K_k5wiLfLo3zVsC4gHq1-7" value="Alternative Question 1" style="rounded=1;whiteSpace=wrap;html=1;fontSize=12;glass=0;strokeWidth=1;shadow=0;" vertex="1" parent="WIyWlLk6GJQsqaUBKTNV-1">
          <mxGeometry x="40" y="570" width="140" height="40" as="geometry" />
        </mxCell>
        <mxCell id="K_k5wiLfLo3zVsC4gHq1-8" value="Alternative Question 2" style="rounded=1;whiteSpace=wrap;html=1;fontSize=12;glass=0;strokeWidth=1;shadow=0;" vertex="1" parent="WIyWlLk6GJQsqaUBKTNV-1">
          <mxGeometry x="200" y="570" width="140" height="40" as="geometry" />
        </mxCell>
        <mxCell id="K_k5wiLfLo3zVsC4gHq1-9" value="Alternative Question 3" style="rounded=1;whiteSpace=wrap;html=1;fontSize=12;glass=0;strokeWidth=1;shadow=0;" vertex="1" parent="WIyWlLk6GJQsqaUBKTNV-1">
          <mxGeometry x="360" y="570" width="140" height="40" as="geometry" />
        </mxCell>
        <mxCell id="K_k5wiLfLo3zVsC4gHq1-10" value="Alternative Question 4" style="rounded=1;whiteSpace=wrap;html=1;fontSize=12;glass=0;strokeWidth=1;shadow=0;" vertex="1" parent="WIyWlLk6GJQsqaUBKTNV-1">
          <mxGeometry x="520" y="570" width="140" height="40" as="geometry" />
        </mxCell>
        <mxCell id="K_k5wiLfLo3zVsC4gHq1-11" value="Alternative Question 5" style="rounded=1;whiteSpace=wrap;html=1;fontSize=12;glass=0;strokeWidth=1;shadow=0;" vertex="1" parent="WIyWlLk6GJQsqaUBKTNV-1">
          <mxGeometry x="680" y="570" width="140" height="40" as="geometry" />
        </mxCell>
        <mxCell id="K_k5wiLfLo3zVsC4gHq1-20" style="edgeStyle=orthogonalEdgeStyle;rounded=0;orthogonalLoop=1;jettySize=auto;html=1;exitX=0.5;exitY=1;exitDx=0;exitDy=0;" edge="1" parent="WIyWlLk6GJQsqaUBKTNV-1" source="K_k5wiLfLo3zVsC4gHq1-14">
          <mxGeometry relative="1" as="geometry">
            <mxPoint x="280" y="940" as="targetPoint" />
          </mxGeometry>
        </mxCell>
        <mxCell id="K_k5wiLfLo3zVsC4gHq1-21" style="edgeStyle=orthogonalEdgeStyle;rounded=0;orthogonalLoop=1;jettySize=auto;html=1;exitX=0.5;exitY=1;exitDx=0;exitDy=0;" edge="1" parent="WIyWlLk6GJQsqaUBKTNV-1">
          <mxGeometry relative="1" as="geometry">
            <mxPoint x="80" y="945" as="targetPoint" />
            <mxPoint x="180" y="815" as="sourcePoint" />
            <Array as="points">
              <mxPoint x="180" y="875" />
            </Array>
          </mxGeometry>
        </mxCell>
        <mxCell id="K_k5wiLfLo3zVsC4gHq1-14" value="Use Alternative Questions for retrieval of similar documents in original dataset using vector / hybrid search" style="whiteSpace=wrap;html=1;shadow=0;fontFamily=Helvetica;fontSize=12;align=center;strokeWidth=1;spacing=6;spacingTop=-4;shape=ellipse;perimeter=ellipsePerimeter;" vertex="1" parent="WIyWlLk6GJQsqaUBKTNV-1">
          <mxGeometry x="60" y="670" width="240" height="140" as="geometry" />
        </mxCell>
        <mxCell id="K_k5wiLfLo3zVsC4gHq1-33" style="edgeStyle=orthogonalEdgeStyle;rounded=0;orthogonalLoop=1;jettySize=auto;html=1;exitX=0;exitY=0.5;exitDx=0;exitDy=0;entryX=0.5;entryY=0;entryDx=0;entryDy=0;" edge="1" parent="WIyWlLk6GJQsqaUBKTNV-1" source="K_k5wiLfLo3zVsC4gHq1-15" target="K_k5wiLfLo3zVsC4gHq1-27">
          <mxGeometry relative="1" as="geometry" />
        </mxCell>
        <mxCell id="K_k5wiLfLo3zVsC4gHq1-34" style="edgeStyle=orthogonalEdgeStyle;rounded=0;orthogonalLoop=1;jettySize=auto;html=1;exitX=1;exitY=0.5;exitDx=0;exitDy=0;" edge="1" parent="WIyWlLk6GJQsqaUBKTNV-1" source="K_k5wiLfLo3zVsC4gHq1-15">
          <mxGeometry relative="1" as="geometry">
            <mxPoint x="740" y="860" as="targetPoint" />
            <Array as="points">
              <mxPoint x="741" y="730" />
            </Array>
          </mxGeometry>
        </mxCell>
        <mxCell id="K_k5wiLfLo3zVsC4gHq1-15" value="Use Alternative Questions as queries for the RAG for generating answers&amp;nbsp;" style="whiteSpace=wrap;html=1;shadow=0;fontFamily=Helvetica;fontSize=12;align=center;strokeWidth=1;spacing=6;spacingTop=-4;shape=ellipse;perimeter=ellipsePerimeter;" vertex="1" parent="WIyWlLk6GJQsqaUBKTNV-1">
          <mxGeometry x="440" y="660" width="250" height="140" as="geometry" />
        </mxCell>
        <mxCell id="K_k5wiLfLo3zVsC4gHq1-22" value="relevant ID in retrieved documents" style="ellipse;whiteSpace=wrap;html=1;" vertex="1" parent="WIyWlLk6GJQsqaUBKTNV-1">
          <mxGeometry x="120" y="850" width="120" height="60" as="geometry" />
        </mxCell>
        <mxCell id="K_k5wiLfLo3zVsC4gHq1-23" value="yes" style="text;html=1;align=center;verticalAlign=middle;whiteSpace=wrap;rounded=0;" vertex="1" parent="WIyWlLk6GJQsqaUBKTNV-1">
          <mxGeometry x="220" y="890" width="60" height="30" as="geometry" />
        </mxCell>
        <mxCell id="K_k5wiLfLo3zVsC4gHq1-24" value="no" style="text;html=1;align=center;verticalAlign=middle;whiteSpace=wrap;rounded=0;" vertex="1" parent="WIyWlLk6GJQsqaUBKTNV-1">
          <mxGeometry x="70" y="890" width="60" height="30" as="geometry" />
        </mxCell>
        <mxCell id="K_k5wiLfLo3zVsC4gHq1-25" value="+1" style="text;html=1;align=center;verticalAlign=middle;whiteSpace=wrap;rounded=0;" vertex="1" parent="WIyWlLk6GJQsqaUBKTNV-1">
          <mxGeometry x="250" y="950" width="60" height="30" as="geometry" />
        </mxCell>
        <mxCell id="K_k5wiLfLo3zVsC4gHq1-26" value="+0" style="text;html=1;align=center;verticalAlign=middle;whiteSpace=wrap;rounded=0;" vertex="1" parent="WIyWlLk6GJQsqaUBKTNV-1">
          <mxGeometry x="50" y="950" width="60" height="30" as="geometry" />
        </mxCell>
        <mxCell id="K_k5wiLfLo3zVsC4gHq1-27" value="Check cosine similarity (Original Answer - Generated Answer)" style="ellipse;whiteSpace=wrap;html=1;" vertex="1" parent="WIyWlLk6GJQsqaUBKTNV-1">
          <mxGeometry x="314.37" y="860" width="185.63" height="90" as="geometry" />
        </mxCell>
        <mxCell id="K_k5wiLfLo3zVsC4gHq1-32" value="Let LLM judge relevance of generated answer given original question - answer pair" style="ellipse;whiteSpace=wrap;html=1;" vertex="1" parent="WIyWlLk6GJQsqaUBKTNV-1">
          <mxGeometry x="634.3700000000001" y="860" width="185.63" height="90" as="geometry" />
        </mxCell>
      </root>
    </mxGraphModel>
  </diagram>
</mxfile>
